# xmcd
#
# Track frame offsets: 
#        150
#        14882
#        28436
#        41435
#        53784
#        64862
#        80227
#        98712
#        108342
#        121440
#        135999
#
# Disc length: 2022 seconds
#
# Revision: 0
# Processed by: cddbd v1.5.2PL0 Copyright (c) Steve Scherf et al.
# Submitted via: ExactAudioCopy v0.99pb5
#
DISCID=9a07e40b
DTITLE=Jerry Webb - There's A Song In That
DYEAR=2008
DGENRE=Country
TTITLE0=Wall To Wall
TTITLE1=There's A Song In That
TTITLE2=Tonight I'm Drinking It Over
TTITLE3=I Forget To Move On
TTITLE4=Living On Honky Tonk Time
TTITLE5=Party List
TTITLE6=Only God Knows That
TTITLE7=It's About Our Love
TTITLE8=Ain't Having No Fun
TTITLE9=First From The Last
TTITLE10=Jenny's Dream
EXTD=
EXTT0=
EXTT1=
EXTT2=
EXTT3=
EXTT4=
EXTT5=
EXTT6=
EXTT7=
EXTT8=
EXTT9=
EXTT10=
PLAYORDER=
